<mxfile host="app.diagrams.net" agent="Mozilla/5.0 (Windows NT 10.0; Win64; x64; rv:138.0) Gecko/20100101 Firefox/138.0" version="27.0.9">
  <diagram name="Page-1" id="pkjvpUxK6_8Ua0SjvYSW">
    <mxGraphModel dx="834" dy="450" grid="1" gridSize="10" guides="1" tooltips="1" connect="1" arrows="1" fold="1" page="1" pageScale="1" pageWidth="850" pageHeight="1100" math="0" shadow="0">
      <root>
        <mxCell id="0" />
        <mxCell id="1" parent="0" />
        <mxCell id="b6lw7XCxsCEYnhysrv_S-1" value="User" style="shape=umlActor;verticalLabelPosition=bottom;verticalAlign=top;html=1;outlineConnect=0;" vertex="1" parent="1">
          <mxGeometry x="40" y="110" width="30" height="60" as="geometry" />
        </mxCell>
        <mxCell id="b6lw7XCxsCEYnhysrv_S-3" value="" style="endArrow=classic;html=1;rounded=0;" edge="1" parent="1">
          <mxGeometry width="50" height="50" relative="1" as="geometry">
            <mxPoint x="100" y="140" as="sourcePoint" />
            <mxPoint x="220" y="140" as="targetPoint" />
          </mxGeometry>
        </mxCell>
        <mxCell id="b6lw7XCxsCEYnhysrv_S-4" value="mengirim pesan" style="edgeLabel;html=1;align=center;verticalAlign=middle;resizable=0;points=[];" vertex="1" connectable="0" parent="b6lw7XCxsCEYnhysrv_S-3">
          <mxGeometry x="0.0148" y="-3" relative="1" as="geometry">
            <mxPoint as="offset" />
          </mxGeometry>
        </mxCell>
        <mxCell id="b6lw7XCxsCEYnhysrv_S-5" value="Sistem Chatbot" style="rounded=0;whiteSpace=wrap;html=1;" vertex="1" parent="1">
          <mxGeometry x="240" y="100" width="120" height="80" as="geometry" />
        </mxCell>
        <mxCell id="b6lw7XCxsCEYnhysrv_S-7" value="RULE-BASED" style="text;html=1;align=center;verticalAlign=middle;resizable=0;points=[];autosize=1;strokeColor=none;fillColor=none;" vertex="1" parent="1">
          <mxGeometry x="100" y="50" width="100" height="30" as="geometry" />
        </mxCell>
        <mxCell id="b6lw7XCxsCEYnhysrv_S-8" value="" style="endArrow=classic;html=1;rounded=0;" edge="1" parent="1">
          <mxGeometry width="50" height="50" relative="1" as="geometry">
            <mxPoint x="375" y="140" as="sourcePoint" />
            <mxPoint x="540" y="140" as="targetPoint" />
          </mxGeometry>
        </mxCell>
        <mxCell id="b6lw7XCxsCEYnhysrv_S-9" value="mengirim kembali" style="edgeLabel;html=1;align=center;verticalAlign=middle;resizable=0;points=[];" vertex="1" connectable="0" parent="b6lw7XCxsCEYnhysrv_S-8">
          <mxGeometry x="-0.2783" y="-1" relative="1" as="geometry">
            <mxPoint as="offset" />
          </mxGeometry>
        </mxCell>
        <mxCell id="b6lw7XCxsCEYnhysrv_S-10" value="User" style="shape=umlActor;verticalLabelPosition=bottom;verticalAlign=top;html=1;outlineConnect=0;" vertex="1" parent="1">
          <mxGeometry x="560" y="110" width="30" height="60" as="geometry" />
        </mxCell>
        <mxCell id="b6lw7XCxsCEYnhysrv_S-11" value="User" style="shape=umlActor;verticalLabelPosition=bottom;verticalAlign=top;html=1;outlineConnect=0;" vertex="1" parent="1">
          <mxGeometry x="40" y="350" width="30" height="60" as="geometry" />
        </mxCell>
        <mxCell id="b6lw7XCxsCEYnhysrv_S-13" value="AI-BASED" style="text;html=1;align=center;verticalAlign=middle;resizable=0;points=[];autosize=1;strokeColor=none;fillColor=none;" vertex="1" parent="1">
          <mxGeometry x="100" y="290" width="80" height="30" as="geometry" />
        </mxCell>
        <mxCell id="b6lw7XCxsCEYnhysrv_S-14" value="" style="endArrow=classic;html=1;rounded=0;" edge="1" parent="1">
          <mxGeometry width="50" height="50" relative="1" as="geometry">
            <mxPoint x="100" y="379.58000000000004" as="sourcePoint" />
            <mxPoint x="220" y="379.58000000000004" as="targetPoint" />
          </mxGeometry>
        </mxCell>
        <mxCell id="b6lw7XCxsCEYnhysrv_S-15" value="mengirim pesan" style="edgeLabel;html=1;align=center;verticalAlign=middle;resizable=0;points=[];" vertex="1" connectable="0" parent="b6lw7XCxsCEYnhysrv_S-14">
          <mxGeometry x="0.0148" y="-3" relative="1" as="geometry">
            <mxPoint as="offset" />
          </mxGeometry>
        </mxCell>
        <mxCell id="b6lw7XCxsCEYnhysrv_S-16" value="Sistem Chatbot" style="rounded=0;whiteSpace=wrap;html=1;" vertex="1" parent="1">
          <mxGeometry x="240" y="340" width="120" height="80" as="geometry" />
        </mxCell>
        <mxCell id="b6lw7XCxsCEYnhysrv_S-17" value="" style="endArrow=classic;html=1;rounded=0;" edge="1" parent="1">
          <mxGeometry width="50" height="50" relative="1" as="geometry">
            <mxPoint x="380" y="379.58000000000004" as="sourcePoint" />
            <mxPoint x="540" y="380" as="targetPoint" />
          </mxGeometry>
        </mxCell>
        <mxCell id="b6lw7XCxsCEYnhysrv_S-18" value="meneruskan pesan" style="edgeLabel;html=1;align=center;verticalAlign=middle;resizable=0;points=[];" vertex="1" connectable="0" parent="b6lw7XCxsCEYnhysrv_S-17">
          <mxGeometry x="0.0148" y="-3" relative="1" as="geometry">
            <mxPoint as="offset" />
          </mxGeometry>
        </mxCell>
        <mxCell id="b6lw7XCxsCEYnhysrv_S-20" value="AI MODEL" style="rounded=0;whiteSpace=wrap;html=1;" vertex="1" parent="1">
          <mxGeometry x="570" y="340" width="120" height="80" as="geometry" />
        </mxCell>
        <mxCell id="b6lw7XCxsCEYnhysrv_S-21" value="" style="endArrow=classic;html=1;rounded=0;" edge="1" parent="1">
          <mxGeometry width="50" height="50" relative="1" as="geometry">
            <mxPoint x="629.6" y="450" as="sourcePoint" />
            <mxPoint x="629.6" y="590.4200000000001" as="targetPoint" />
          </mxGeometry>
        </mxCell>
        <mxCell id="b6lw7XCxsCEYnhysrv_S-22" value="mengembalikan jawaban AI" style="edgeLabel;html=1;align=center;verticalAlign=middle;resizable=0;points=[];" vertex="1" connectable="0" parent="b6lw7XCxsCEYnhysrv_S-21">
          <mxGeometry x="0.0148" y="-3" relative="1" as="geometry">
            <mxPoint as="offset" />
          </mxGeometry>
        </mxCell>
        <mxCell id="b6lw7XCxsCEYnhysrv_S-24" value="Sistem Chatbot" style="rounded=0;whiteSpace=wrap;html=1;" vertex="1" parent="1">
          <mxGeometry x="570" y="620" width="120" height="80" as="geometry" />
        </mxCell>
        <mxCell id="b6lw7XCxsCEYnhysrv_S-25" value="" style="endArrow=classic;html=1;rounded=0;" edge="1" parent="1">
          <mxGeometry width="50" height="50" relative="1" as="geometry">
            <mxPoint x="545" y="659.38" as="sourcePoint" />
            <mxPoint x="360" y="660" as="targetPoint" />
          </mxGeometry>
        </mxCell>
        <mxCell id="b6lw7XCxsCEYnhysrv_S-26" value="mengirim pesan kembali" style="edgeLabel;html=1;align=center;verticalAlign=middle;resizable=0;points=[];" vertex="1" connectable="0" parent="b6lw7XCxsCEYnhysrv_S-25">
          <mxGeometry x="0.0148" y="-3" relative="1" as="geometry">
            <mxPoint as="offset" />
          </mxGeometry>
        </mxCell>
        <mxCell id="b6lw7XCxsCEYnhysrv_S-27" value="User" style="shape=umlActor;verticalLabelPosition=bottom;verticalAlign=top;html=1;outlineConnect=0;" vertex="1" parent="1">
          <mxGeometry x="300" y="630" width="30" height="60" as="geometry" />
        </mxCell>
      </root>
    </mxGraphModel>
  </diagram>
</mxfile>
